# xmcd
#
# Track frame offsets:
#	150
#	11903
#	23665
#	37649
#	52941
#	68280
#	79836
#	92069
#	105153
#	118090
#	130433
#	141433
#	152936
#	165418
#	175427
#	189443
#	201618
#	214838
#	229155
#	240360
#	254336
#	266583
#	279880
#	293086
#	306905
#	321894
#	334569
#	346559
#
# Disc length: 4783 seconds
#
# Revision: 0
# Processed by: cddbd v1.5.1PL2 Copyright (c) Steve Scherf et al.
# Submitted via: dBpowerAMP V4.0
#
DISCID=8212ad1c
DTITLE=Elton Britt - Country Music's Yodelling Cowboy Crooner
DYEAR=1900
DGENRE=Country
TTITLE0=I Hung My Head And Cried
TTITLE1=Broken Wings
TTITLE2=Where Are You Now
TTITLE3=Why Did You Leave Me Alone
TTITLE4=Cowpoke
TTITLE5=Gotta Get Together With My Gal
TTITLE6=There's A Star Spangled Banner Waving Somewhere
TTITLE7=Just Because You're In Deep Elem
TTITLE8=Quicksilver
TTITLE9=I'm All That's Left Of That Old Quartett
TTITLE10=Thanks For The Heartache
TTITLE11=They'er Positively Wrong
TTITLE12=Merry Maiden Polka
TTITLE13=One For The Wonder
TTITLE14=Close Your Eyes And Dream
TTITLE15=You'll Be Sorry From Now On
TTITLE16=Maybe I'll Cry Over You
TTITLE17=Buddy Boy
TTITLE18=Too Tired To Care
TTITLE19=She Taught Me To Yodel
TTITLE20=I Get The Blues When It Rains
TTITLE21=Darling I've Loved Much To Much
TTITLE22=Weep No More My Darlin'
TTITLE23=Put My Little Shoes Away
TTITLE24=Will You Wait For Me Little Darlin'
TTITLE25=Too Many Tears
TTITLE26=Acres Of Diamonds
TTITLE27=Chime Bells
EXTD=Bob Dunham
EXTT0=
EXTT1=
EXTT2=
EXTT3=
EXTT4=
EXTT5=
EXTT6=
EXTT7=
EXTT8=
EXTT9=
EXTT10=
EXTT11=
EXTT12=
EXTT13=
EXTT14=
EXTT15=
EXTT16=
EXTT17=
EXTT18=
EXTT19=
EXTT20=
EXTT21=
EXTT22=
EXTT23=
EXTT24=
EXTT25=
EXTT26=
EXTT27=
PLAYORDER=
